<svg xmlns="http://www.w3.org/2000/svg" viewBox="0 0 720 1080" width="720" height="1080">
  <defs>
    <style>
      /* ── Light Mode (default) ── */
      :root {
        --bg: #fafbfc;
        --card-bg: #ffffff;
        --card-border: #e1e4e8;
        --text: #24292f;
        --text-muted: #57606a;
        --connector: #c9d1d9;
        --blue: #0969da;
        --blue-bg: #ddf4ff;
        --blue-border: #54aeff;
        --green: #1a7f37;
        --green-bg: #dafbe1;
        --green-border: #4ac26b;
        --amber: #9a6700;
        --amber-bg: #fff8c5;
        --amber-border: #d4a72c;
        --indigo: #5a67d8;
        --indigo-bg: #eef0ff;
        --indigo-border: #8b93e6;
        --step-bg: #ffffff;
        --step-border: #8b93e6;
        --icon-bg: #eef0ff;
      }

      /* ── Dark Mode ── */
      @media (prefers-color-scheme: dark) {
        :root {
          --bg: #0d1117;
          --card-bg: #161b22;
          --card-border: #30363d;
          --text: #e6edf3;
          --text-muted: #8b949e;
          --connector: #484f58;
          --blue: #58a6ff;
          --blue-bg: #0c2d6b;
          --blue-border: #1f6feb;
          --green: #3fb950;
          --green-bg: #0a3d1e;
          --green-border: #238636;
          --amber: #d29922;
          --amber-bg: #3b2e00;
          --amber-border: #9e6a03;
          --indigo: #a5b4fc;
          --indigo-bg: #1e1b4b;
          --indigo-border: #6366f1;
          --step-bg: #1c2128;
          --step-border: #6366f1;
          --icon-bg: #1e1b4b;
        }
      }

      .bg { fill: var(--bg); }
      text { font-family: -apple-system, BlinkMacSystemFont, 'Segoe UI', Helvetica, Arial, sans-serif; }
      .stage-label { font-size: 11.5px; font-weight: 700; fill: var(--indigo); letter-spacing: 0.08em; }
      .step-text { font-size: 11px; font-weight: 600; fill: var(--text); text-anchor: middle; dominant-baseline: central; }
      .terminal-label { font-size: 13px; font-weight: 700; letter-spacing: 0.04em; text-anchor: middle; dominant-baseline: central; }
      .terminal-sub { font-size: 11px; font-weight: 400; text-anchor: middle; dominant-baseline: central; }
      .input-text { fill: var(--blue); }
      .output-text { fill: var(--green); }
      .decision-text { font-size: 12px; font-weight: 700; fill: var(--amber); letter-spacing: 0.04em; text-anchor: middle; dominant-baseline: central; }
      .card { fill: var(--card-bg); stroke: var(--card-border); stroke-width: 1.5; }
      .card-divider { stroke: var(--card-border); stroke-width: 1; }
      .step-box { fill: var(--step-bg); stroke: var(--step-border); stroke-width: 1.5; }
      .icon-box { fill: var(--icon-bg); stroke: var(--indigo-border); stroke-width: 1; }
      .input-box { fill: var(--blue-bg); stroke: var(--blue-border); stroke-width: 2; }
      .output-box { fill: var(--green-bg); stroke: var(--green-border); stroke-width: 2; }
      .decision-box { fill: var(--amber-bg); stroke: var(--amber-border); stroke-width: 2; }
      .connector-line { stroke: var(--connector); stroke-width: 2; }
      .connector-arrow { fill: var(--connector); }
      .step-arrow { stroke: var(--connector); stroke-width: 1.5; fill: none; }
    </style>
  </defs>

  <rect class="bg" width="720" height="1080"/>

  <!-- ═══ INPUT ═══ -->
  <rect class="input-box" x="190" y="20" width="340" height="52" rx="10"/>
  <text class="terminal-label input-text" x="360" y="38">📥  INPUT</text>
  <text class="terminal-sub input-text" x="360" y="56" opacity="0.8">GitHub Issue · Linear Ticket · Description</text>

  <line class="connector-line" x1="360" y1="72" x2="360" y2="96"/>
  <polygon class="connector-arrow" points="360,102 355,94 365,94"/>

  <!-- ═══ ORCHESTRATOR ═══ -->
  <rect class="card" x="40" y="106" width="640" height="100" rx="12"/>
  <rect class="icon-box" x="60" y="118" width="28" height="28" rx="6"/>
  <text x="74" y="132" text-anchor="middle" dominant-baseline="central" font-size="14">🎯</text>
  <text class="stage-label" x="100" y="132" dominant-baseline="central">ORCHESTRATOR</text>
  <line class="card-divider" x1="56" y1="152" x2="664" y2="152"/>
  <rect class="step-box" x="66" y="162" width="176" height="34" rx="8"/>
  <text class="step-text" x="154" y="179">Sync & create worktree</text>
  <path class="step-arrow" d="M246,179 L264,179 L260,175 M264,179 L260,183"/>
  <rect class="step-box" x="272" y="162" width="176" height="34" rx="8"/>
  <text class="step-text" x="360" y="179">Parse & classify task</text>
  <path class="step-arrow" d="M452,179 L470,179 L466,175 M470,179 L466,183"/>
  <rect class="step-box" x="478" y="162" width="176" height="34" rx="8"/>
  <text class="step-text" x="566" y="179">Route to planner</text>

  <line class="connector-line" x1="360" y1="206" x2="360" y2="230"/>
  <polygon class="connector-arrow" points="360,236 355,228 365,228"/>

  <!-- ═══ PLANNER ═══ -->
  <rect class="card" x="40" y="240" width="640" height="100" rx="12"/>
  <rect class="icon-box" x="60" y="252" width="28" height="28" rx="6"/>
  <text x="74" y="266" text-anchor="middle" dominant-baseline="central" font-size="14">📋</text>
  <text class="stage-label" x="100" y="266" dominant-baseline="central">PLANNER</text>
  <line class="card-divider" x1="56" y1="286" x2="664" y2="286"/>
  <rect class="step-box" x="66" y="296" width="176" height="34" rx="8"/>
  <text class="step-text" x="154" y="313">Research codebase</text>
  <path class="step-arrow" d="M246,313 L264,313 L260,309 M264,313 L260,317"/>
  <rect class="step-box" x="272" y="296" width="176" height="34" rx="8"/>
  <text class="step-text" x="360" y="313">Identify files & patterns</text>
  <path class="step-arrow" d="M452,313 L470,313 L466,309 M470,313 L466,317"/>
  <rect class="step-box" x="478" y="296" width="176" height="34" rx="8"/>
  <text class="step-text" x="566" y="313">Write story file</text>

  <line class="connector-line" x1="360" y1="340" x2="360" y2="364"/>
  <polygon class="connector-arrow" points="360,370 355,362 365,362"/>

  <!-- ═══ APPROVE PLAN ═══ -->
  <rect class="decision-box" x="240" y="374" width="240" height="38" rx="8"/>
  <text class="decision-text" x="360" y="393">👤  APPROVE PLAN</text>

  <line class="connector-line" x1="360" y1="412" x2="360" y2="436"/>
  <polygon class="connector-arrow" points="360,442 355,434 365,434"/>

  <!-- ═══ IMPLEMENTER ═══ -->
  <rect class="card" x="40" y="446" width="640" height="100" rx="12"/>
  <rect class="icon-box" x="60" y="458" width="28" height="28" rx="6"/>
  <text x="74" y="472" text-anchor="middle" dominant-baseline="central" font-size="14">⚙️</text>
  <text class="stage-label" x="100" y="472" dominant-baseline="central">IMPLEMENTER</text>
  <line class="card-divider" x1="56" y1="492" x2="664" y2="492"/>
  <rect class="step-box" x="66" y="502" width="176" height="34" rx="8"/>
  <text class="step-text" x="154" y="519">Read story & requirements</text>
  <path class="step-arrow" d="M246,519 L264,519 L260,515 M264,519 L260,523"/>
  <rect class="step-box" x="272" y="502" width="176" height="34" rx="8"/>
  <text class="step-text" x="360" y="519">Write code following plan</text>
  <path class="step-arrow" d="M452,519 L470,519 L466,515 M470,519 L466,523"/>
  <rect class="step-box" x="478" y="502" width="176" height="34" rx="8"/>
  <text class="step-text" x="566" y="519">Run builds if native</text>

  <line class="connector-line" x1="360" y1="546" x2="360" y2="570"/>
  <polygon class="connector-arrow" points="360,576 355,568 365,568"/>

  <!-- ═══ TESTER ═══ -->
  <rect class="card" x="40" y="580" width="640" height="100" rx="12"/>
  <rect class="icon-box" x="60" y="592" width="28" height="28" rx="6"/>
  <text x="74" y="606" text-anchor="middle" dominant-baseline="central" font-size="14">🧪</text>
  <text class="stage-label" x="100" y="606" dominant-baseline="central">TESTER</text>
  <line class="card-divider" x1="56" y1="626" x2="664" y2="626"/>
  <rect class="step-box" x="66" y="636" width="176" height="34" rx="8"/>
  <text class="step-text" x="154" y="653">Analyze coverage needs</text>
  <path class="step-arrow" d="M246,653 L264,653 L260,649 M264,653 L260,657"/>
  <rect class="step-box" x="272" y="636" width="176" height="34" rx="8"/>
  <text class="step-text" x="360" y="653">Write tests for new code</text>
  <path class="step-arrow" d="M452,653 L470,653 L466,649 M470,653 L466,657"/>
  <rect class="step-box" x="478" y="636" width="176" height="34" rx="8"/>
  <text class="step-text" x="566" y="653">Run tests & fix failures</text>

  <line class="connector-line" x1="360" y1="680" x2="360" y2="704"/>
  <polygon class="connector-arrow" points="360,710 355,702 365,702"/>

  <!-- ═══ REVIEWER ═══ -->
  <rect class="card" x="40" y="714" width="640" height="100" rx="12"/>
  <rect class="icon-box" x="60" y="726" width="28" height="28" rx="6"/>
  <text x="74" y="740" text-anchor="middle" dominant-baseline="central" font-size="14">🔍</text>
  <text class="stage-label" x="100" y="740" dominant-baseline="central">REVIEWER</text>
  <line class="card-divider" x1="56" y1="760" x2="664" y2="760"/>
  <rect class="step-box" x="66" y="770" width="176" height="34" rx="8"/>
  <text class="step-text" x="154" y="787">Verify builds pass</text>
  <path class="step-arrow" d="M246,787 L264,787 L260,783 M264,787 L260,791"/>
  <rect class="step-box" x="272" y="770" width="176" height="34" rx="8"/>
  <text class="step-text" x="360" y="787">Check code quality</text>
  <path class="step-arrow" d="M452,787 L470,787 L466,783 M470,787 L466,791"/>
  <rect class="step-box" x="478" y="770" width="176" height="34" rx="8"/>
  <text class="step-text" x="566" y="787">Create draft PR</text>

  <line class="connector-line" x1="360" y1="814" x2="360" y2="838"/>
  <polygon class="connector-arrow" points="360,844 355,836 365,836"/>

  <!-- ═══ REVIEW PR ═══ -->
  <rect class="decision-box" x="240" y="848" width="240" height="38" rx="8"/>
  <text class="decision-text" x="360" y="867">👤  REVIEW PR</text>

  <line class="connector-line" x1="360" y1="886" x2="360" y2="910"/>
  <polygon class="connector-arrow" points="360,916 355,908 365,908"/>

  <!-- ═══ OUTPUT ═══ -->
  <rect class="output-box" x="190" y="920" width="340" height="52" rx="10"/>
  <text class="terminal-label output-text" x="360" y="938">✅  OUTPUT</text>
  <text class="terminal-sub output-text" x="360" y="956" opacity="0.8">Feature Merged to Main</text>

</svg>
